<svg width="200" height="37" viewBox="0 0 200 37" fill="none" xmlns="http://www.w3.org/2000/svg">
<path d="M124.281 2.9142V0.00608444L118.934 0.00608444V2.9142L124.281 2.9142Z" fill="#FF81A7"/>
<path d="M183.863 2.91461V0.00649261L178.516 0.00649261V2.91461L183.863 2.91461Z" fill="#FF81A7"/>
<path d="M0 19.8674C0 12.4209 6.05833 6.4327 13.4742 6.4327C20.89 6.4327 26.8958 12.4209 26.8958 19.8674V32.8849H21.7775V28.7712C20.5242 31.3228 17.1817 33.3012 13.4742 33.3012C6.0575 33.302 0 27.3138 0 19.8674ZM21.8292 19.8674C21.8292 15.1288 18.33 11.3798 13.5258 11.3798C8.72167 11.3798 5.1175 15.1288 5.1175 19.8674C5.1175 24.6059 8.77333 28.3549 13.5258 28.3549C18.2783 28.3549 21.8292 24.6059 21.8292 19.8674Z" fill="#00B4CF"/>
<path d="M30.76 32.8849V0H35.8783V32.8849H30.76V32.8849Z" fill="#00B4CF"/>
<path d="M40.2634 32.8849V0H45.3817V32.8849H40.2634V32.8849Z" fill="#00B4CF"/>
<path d="M78.4916 0H83.6616V10.1817C85.5941 7.89096 88.4141 6.43275 91.9133 6.43275C99.3291 6.43275 105.387 12.421 105.387 19.8674C105.387 27.3138 99.3291 33.3021 91.9133 33.3021C84.4975 33.3021 78.4916 27.3138 78.4916 19.8674V0ZM83.5566 19.8674C83.5566 24.606 87.16 28.3549 91.9125 28.3549C96.7175 28.3549 100.268 24.606 100.268 19.8674C100.268 15.1288 96.665 11.3799 91.9125 11.3799C87.2125 11.3799 83.5566 15.1288 83.5566 19.8674Z" fill="#FF81A7"/>
<path d="M121.472 6.4327C128.208 6.4327 134.684 11.3275 134.946 19.3987C134.946 20.2836 134.893 21.0647 134.789 21.7418H113.691C114.108 25.5955 117.242 28.3549 121.473 28.3549C124.345 28.3549 126.382 27.2091 127.739 25.7509L133.849 25.8032C131.603 30.2809 126.903 33.3012 121.628 33.3012C114.108 33.3012 108.207 27.313 108.207 19.9189C108.207 12.5771 113.952 6.4327 121.472 6.4327ZM129.462 17.5766C128.522 14.0362 125.389 11.3798 121.629 11.3798C117.556 11.3798 114.631 14.0353 113.691 17.5766H129.462V17.5766Z" fill="#FF81A7"/>
<path d="M138.027 0H143.197V10.1817C145.13 7.89096 147.95 6.43275 151.449 6.43275C158.865 6.43275 164.923 12.421 164.923 19.8674C164.923 27.3138 158.865 33.3021 151.449 33.3021C144.033 33.3021 138.027 27.3138 138.027 19.8674V0ZM143.093 19.8674C143.093 24.606 146.697 28.3549 151.449 28.3549C156.254 28.3549 159.805 24.606 159.805 19.8674C159.805 15.1288 156.202 11.3799 151.449 11.3799C146.749 11.3799 143.093 15.1288 143.093 19.8674Z" fill="#FF81A7"/>
<path d="M181.008 6.4327C187.745 6.4327 194.221 11.3275 194.483 19.3987C194.483 20.2836 194.43 21.0647 194.326 21.7418H173.228C173.645 25.5955 176.779 28.3549 181.009 28.3549C183.882 28.3549 185.918 27.2091 187.276 25.7509L193.386 25.8032C191.14 30.2809 186.44 33.3012 181.165 33.3012C173.645 33.3012 167.743 27.313 167.743 19.9189C167.743 12.5771 173.488 6.4327 181.008 6.4327ZM188.998 17.5766C188.058 14.0362 184.925 11.3798 181.165 11.3798C177.092 11.3798 174.167 14.0353 173.227 17.5766H188.998V17.5766Z" fill="#FF81A7"/>
<path d="M61.9883 11.38C59.0533 11.38 56.5691 12.78 55.0783 14.9486C56.7366 16.8713 59.1933 18.0911 61.9366 18.0911C64.6908 18.0911 67.1558 16.8622 68.8141 14.9262C67.3516 12.7701 64.9125 11.38 61.9883 11.38Z" fill="#FFBED7"/>
<path d="M70.9433 9.85945C70.9658 9.60021 70.98 9.33848 70.98 9.07343C70.98 4.09308 66.9308 0.0557861 61.9358 0.0557861C56.9408 0.0557861 52.8917 4.09308 52.8917 9.07343C52.8917 9.33848 52.9058 9.60021 52.9283 9.85945C55.3117 7.72739 58.465 6.43286 61.9358 6.43286C65.4067 6.43286 68.5608 7.72739 70.9433 9.85945Z" fill="#FFBED7"/>
<path d="M70.9433 9.85945C70.7767 11.7855 70.0025 13.537 68.8133 14.9254C69.7533 16.3113 70.2917 18.013 70.2917 19.8675C70.2917 24.6061 66.7408 28.355 61.9883 28.355C57.2358 28.355 53.58 24.6061 53.58 19.8675C53.58 18.0229 54.1275 16.3304 55.0783 14.9486C53.8775 13.5569 53.0967 11.7963 52.9283 9.86028C50.1842 12.3156 48.4617 15.8826 48.4617 19.8683C48.4617 27.3148 54.4675 33.303 61.9358 33.303C69.4042 33.303 75.41 27.3148 75.41 19.8683C75.41 15.8817 73.6883 12.3156 70.9433 9.85945Z" fill="#00B4CF"/>
<path d="M61.9883 11.38C64.9125 11.38 67.3516 12.7701 68.8141 14.9254C70.0033 13.537 70.7766 11.7855 70.9441 9.85945C68.5608 7.72739 65.4075 6.43286 61.9366 6.43286C58.4658 6.43286 55.3125 7.72739 52.9291 9.85945C53.0966 11.7963 53.8783 13.5561 55.0791 14.9478C56.5691 12.78 59.0541 11.38 61.9883 11.38Z" fill="#0081B0"/>
</svg>
